# xmcd CD database file
#
# Track frame offsets:
#	215
#	26358
#	42658
#	64283
#	99633
#	116458
#	127458
#	141108
#	153433
#	179083
#	209158
#	223933
#	240708
#	251983
#
# Disc length: 4370 seconds
#
# Revision: 0
# Processed by: cddbd v1.5.1PL2 Copyright (c) Steve Scherf et al.
# Submitted via: CDex 1.51
#
DISCID=ea11100e
DTITLE=Various Artist - Le città musicali - New York
DYEAR=1900
DGENRE=Jazz
TTITLE0=Miuzi weighs a ton - Public Enemy
TTITLE1=Everyboody's talking - Liza Minelli
TTITLE2=I'm waiting for the man - Velvet Underground
TTITLE3=The breaks - Kurtis Blow
TTITLE4=Personality crisis - The New York dolls
TTITLE5=Hello Dolly - Louis Armstrong
TTITLE6=Confirmation - Charlie Parker
TTITLE7=Alexander's ragtime band - Ella Fizgerald
TTITLE8=Pale blue eyes - Velvet Underground
TTITLE9=Take the "A" train - Ella Fizgerald - Duke Ellington
TTITLE10=Sweet Jane - Velvet Underground
TTITLE11=Autumn in New York - Billie Holiday
TTITLE12=(There's no businness like) Show businness - Ethel Merman
TTITLE13=Rhapsody in blue - Orchestre Naional de l'Opera de Montecarlo
EXTD=
EXTT0=
EXTT1=
EXTT2=
EXTT3=
EXTT4=
EXTT5=
EXTT6=
EXTT7=
EXTT8=
EXTT9=
EXTT10=
EXTT11=
EXTT12=
EXTT13=
PLAYORDER=
